# Blender 4.4.0
# www.blender.org
mtllib hardcover_book.mtl
o Cube
v 0.097500 0.047500 -0.145000
v 0.097500 0.002500 -0.145000
v 0.097500 0.047500 0.145000
v 0.097500 0.002500 0.145000
v -0.095000 0.047500 -0.145000
v -0.095000 0.002500 -0.145000
v -0.100000 0.050000 0.150000
v -0.100000 0.000000 0.150000
v 0.105000 0.047500 -0.150000
v 0.105000 0.047500 0.150000
v 0.105000 0.002500 -0.150000
v 0.105000 0.002500 0.150000
v 0.110000 0.050000 -0.150000
v 0.110000 0.050000 0.150000
v 0.110000 0.000000 -0.150000
v 0.110000 0.000000 0.150000
v -0.100000 0.000000 -0.150000
v -0.095000 0.002500 0.145000
v -0.095000 0.047500 0.145000
v -0.100000 0.050000 -0.150000
v 0.100000 0.050000 0.150000
v 0.100000 0.000000 0.150000
v 0.100000 0.000000 -0.150000
v 0.100000 0.050000 -0.150000
vn -0.0000 1.0000 -0.0000
vn 0.4472 -0.8944 -0.0000
vn -1.0000 -0.0000 -0.0000
vn -0.0000 -0.0000 1.0000
vn -0.0000 -0.0000 -1.0000
vn -0.0000 -1.0000 -0.0000
vn -0.4472 -0.8944 -0.0000
vn 0.4472 0.8944 -0.0000
vn 1.0000 -0.0000 -0.0000
vn -0.4472 0.8944 -0.0000
vn -0.0000 -0.8944 0.4472
vn -0.0000 0.8944 0.4472
vn -0.0000 0.8944 -0.4472
vn -0.8944 -0.0000 -0.4472
vn -0.0000 -0.8944 -0.4472
vn -0.8944 -0.0000 0.4472
vt 0.375000 0.000000
vt 0.625000 0.000000
vt 0.625000 0.250000
vt 0.375000 0.250000
vt 0.875000 0.750000
vt 0.875000 0.500000
vt 0.387500 0.500000
vt 0.612500 0.500000
vt 0.612500 0.750000
vt 0.387500 0.750000
vt 0.387500 0.753125
vt 0.612500 0.753125
vt 0.612500 1.000000
vt 0.387500 1.000000
vt 0.137500 0.500000
vt 0.362500 0.500000
vt 0.362500 0.746875
vt 0.137500 0.746875
vt 0.625000 0.500000
vt 0.625000 0.750000
vt 0.375000 0.750000
vt 0.125000 0.750000
vt 0.375000 0.500000
vt 0.625000 1.000000
vt 0.375000 1.000000
vt 0.125000 0.500000
s 0
usemtl Binder_Texture
f 24/1/1 20/2/1 7/3/1 21/4/1
f 22/5/2 23/6/2 11/6/2 12/5/2
f 17/19/6 23/6/6 22/5/6 8/20/6
f 12/5/7 11/6/7 15/6/7 16/5/7
f 24/1/8 21/4/8 10/4/8 9/1/8
f 21/20/4 22/21/4 12/21/4 10/20/4
f 23/22/5 24/21/5 9/21/5 11/22/5
f 15/4/9 13/3/9 14/19/9 16/23/9
f 11/22/5 9/21/5 13/21/5 15/22/5
f 10/20/4 12/21/4 16/21/4 14/20/4
f 9/1/10 10/4/10 14/4/10 13/1/10
f 18/7/10 6/10/10 17/21/10 8/23/10
f 5/9/7 19/8/7 7/19/7 20/20/7
f 19/13/11 3/12/11 21/20/11 7/24/11
f 4/11/12 18/14/12 8/25/12 22/21/12
f 6/15/13 2/18/13 23/22/13 17/26/13
f 2/18/14 1/17/14 24/21/14 23/22/14
f 1/17/15 5/16/15 20/23/15 24/21/15
f 3/12/16 4/11/16 22/21/16 21/20/16
usemtl Page_Texture
f 18/7/3 19/8/3 5/9/3 6/10/3
f 4/11/4 3/12/4 19/13/4 18/14/4
f 6/15/5 5/16/5 1/17/5 2/18/5
