# Blender 4.4.0
# www.blender.org
mtllib bookshelf.mtl
o Cube
v 0.100000 1.770000 -0.570000
v 0.100000 0.030000 -0.570000
v 0.100000 1.770000 0.570000
v 0.100000 0.030000 0.570000
v -0.100000 1.800000 -0.600000
v -0.100000 0.000000 -0.600000
v -0.100000 1.800000 0.600000
v -0.100000 0.000000 0.600000
v 0.100000 0.885000 -0.570000
v -0.100000 0.900000 0.600000
v 0.100000 0.885000 0.570000
v -0.100000 0.900000 -0.600000
v -0.100000 1.350000 0.600000
v 0.100000 1.335000 -0.570000
v 0.100000 1.335000 0.570000
v -0.100000 1.350000 -0.600000
v 0.100000 0.435000 -0.570000
v 0.100000 0.435000 0.570000
v -0.100000 0.450000 -0.600000
v -0.100000 0.450000 0.600000
v 0.100000 0.465000 -0.570000
v 0.100000 0.000000 -0.600000
v 0.100000 0.465000 0.570000
v 0.100000 0.000000 0.600000
v 0.100000 0.915000 -0.570000
v 0.100000 0.915000 0.570000
v 0.100000 0.450000 -0.600000
v 0.100000 0.450000 0.600000
v 0.100000 1.365000 -0.570000
v 0.100000 0.900000 -0.600000
v 0.100000 1.365000 0.570000
v 0.100000 0.900000 0.600000
v 0.100000 1.800000 -0.600000
v 0.100000 1.800000 0.600000
v 0.100000 1.350000 -0.600000
v 0.100000 1.350000 0.600000
v -0.070000 0.435000 -0.570000
v -0.070000 0.030000 -0.570000
v -0.070000 0.435000 0.570000
v -0.070000 0.030000 0.570000
v -0.070000 0.885000 -0.570000
v -0.070000 0.885000 0.570000
v -0.070000 0.465000 -0.570000
v -0.070000 0.465000 0.570000
v -0.070000 1.335000 -0.570000
v -0.070000 0.915000 -0.570000
v -0.070000 1.335000 0.570000
v -0.070000 0.915000 0.570000
v -0.070000 1.770000 -0.570000
v -0.070000 1.770000 0.570000
v -0.070000 1.365000 -0.570000
v -0.070000 1.365000 0.570000
vn -0.0000 1.0000 -0.0000
vn -0.0000 -0.0000 1.0000
vn -1.0000 -0.0000 -0.0000
vn -0.0000 -1.0000 -0.0000
vn -0.0000 -0.0000 -1.0000
vn 1.0000 -0.0000 -0.0000
vt 0.625000 0.500000
vt 0.875000 0.500000
vt 0.875000 0.750000
vt 0.625000 0.750000
vt 0.562500 0.750000
vt 0.625000 1.000000
vt 0.562500 1.000000
vt 0.562500 0.000000
vt 0.625000 0.000000
vt 0.625000 0.250000
vt 0.562500 0.250000
vt 0.125000 0.500000
vt 0.375000 0.500000
vt 0.375000 0.750000
vt 0.125000 0.750000
vt 0.620833 0.506250
vt 0.620833 0.743750
vt 0.562500 0.500000
vt 0.437500 0.250000
vt 0.500000 0.250000
vt 0.500000 0.500000
vt 0.437500 0.500000
vt 0.441667 0.506250
vt 0.495833 0.506250
vt 0.437500 0.000000
vt 0.500000 0.000000
vt 0.437500 0.750000
vt 0.500000 0.750000
vt 0.500000 1.000000
vt 0.437500 1.000000
vt 0.504167 0.506250
vt 0.558333 0.506250
vt 0.375000 1.000000
vt 0.375000 0.000000
vt 0.375000 0.250000
vt 0.433333 0.743750
vt 0.379167 0.743750
vt 0.433333 0.506250
vt 0.379167 0.506250
vt 0.495833 0.743750
vt 0.441667 0.743750
vt 0.504167 0.743750
vt 0.558333 0.743750
vt 0.566667 0.506250
vt 0.566667 0.743750
s 0
usemtl Material
f 33/1/1 5/2/1 7/3/1 34/4/1
f 36/5/2 34/4/2 7/6/2 13/7/2
f 13/8/3 7/9/3 5/10/3 16/11/3
f 6/12/4 22/13/4 24/14/4 8/15/4
f 1/16/4 3/17/4 50/17/4 49/16/4
f 16/11/5 5/10/5 33/1/5 35/18/5
f 19/19/5 12/20/5 30/21/5 27/22/5
f 21/23/2 9/24/2 41/24/2 43/23/2
f 20/25/3 10/26/3 12/20/3 19/19/3
f 28/27/2 32/28/2 10/29/2 20/30/2
f 12/20/5 16/11/5 35/18/5 30/21/5
f 25/31/2 14/32/2 45/32/2 46/31/2
f 10/26/3 13/8/3 16/11/3 12/20/3
f 32/28/2 36/5/2 13/7/2 10/29/2
f 24/14/2 28/27/2 20/30/2 8/33/2
f 8/34/3 20/25/3 19/19/3 6/35/3
f 18/36/5 4/37/5 40/37/5 39/36/5
f 6/35/5 19/19/5 27/22/5 22/13/5
f 17/38/6 2/39/6 22/13/6 27/22/6
f 4/37/6 18/36/6 28/27/6 24/14/6
f 2/39/6 4/37/6 24/14/6 22/13/6
f 18/36/6 17/38/6 27/22/6 28/27/6
f 11/40/6 9/24/6 30/21/6 32/28/6
f 9/24/6 21/23/6 27/22/6 30/21/6
f 23/41/6 11/40/6 32/28/6 28/27/6
f 21/23/6 23/41/6 28/27/6 27/22/6
f 14/32/6 25/31/6 30/21/6 35/18/6
f 26/42/6 15/43/6 36/5/6 32/28/6
f 25/31/6 26/42/6 32/28/6 30/21/6
f 15/43/6 14/32/6 35/18/6 36/5/6
f 3/17/6 1/16/6 33/1/6 34/4/6
f 1/16/6 29/44/6 35/18/6 33/1/6
f 31/45/6 3/17/6 34/4/6 36/5/6
f 29/44/6 31/45/6 36/5/6 35/18/6
f 51/44/6 49/16/6 50/17/6 52/45/6
f 43/23/6 41/24/6 42/40/6 44/41/6
f 46/31/6 45/32/6 47/43/6 48/42/6
f 38/39/6 37/38/6 39/36/6 40/37/6
f 4/37/1 2/39/1 38/39/1 40/37/1
f 15/43/5 26/42/5 48/42/5 47/43/5
f 11/40/5 23/41/5 44/41/5 42/40/5
f 29/44/2 1/16/2 49/16/2 51/44/2
f 17/38/4 18/36/4 39/36/4 37/38/4
f 26/42/1 25/31/1 46/31/1 48/42/1
f 23/41/1 21/23/1 43/23/1 44/41/1
f 3/17/5 31/45/5 52/45/5 50/17/5
f 14/32/4 15/43/4 47/43/4 45/32/4
f 31/45/1 29/44/1 51/44/1 52/45/1
f 2/39/2 17/38/2 37/38/2 38/39/2
f 9/24/4 11/40/4 42/40/4 41/24/4
